<?xml version="1.0" encoding="UTF-8" standalone="no"?>
<!DOCTYPE svg PUBLIC "-//W3C//DTD SVG 1.1//EN"
 "http://www.w3.org/Graphics/SVG/1.1/DTD/svg11.dtd">
<!-- Generated by graphviz version 2.43.0 (0)
 -->
<!-- Title: G Pages: 1 -->
<svg width="1074pt" height="332pt"
 viewBox="0.00 0.00 1074.44 332.00" xmlns="http://www.w3.org/2000/svg" xmlns:xlink="http://www.w3.org/1999/xlink">
<g id="graph0" class="graph" transform="scale(1 1) rotate(0) translate(4 328)">
<title>G</title>
<polygon fill="white" stroke="transparent" points="-4,4 -4,-328 1070.44,-328 1070.44,4 -4,4"/>
<!-- n0 -->
<g id="node1" class="node">
<title>n0</title>
<polygon fill="none" stroke="black" points="88,-252 0,-252 0,-216 88,-216 88,-252"/>
<text text-anchor="middle" x="44" y="-230.3" font-family="Times,serif" font-size="14.00">Hardware</text>
</g>
<!-- n1 -->
<g id="node2" class="node">
<title>n1</title>
<ellipse fill="none" stroke="black" cx="175" cy="-306" rx="107.48" ry="18"/>
<text text-anchor="middle" x="175" y="-302.3" font-family="Times,serif" font-size="14.00">Order new hardware</text>
</g>
<!-- n1&#45;&gt;n0 -->
<g id="edge1" class="edge">
<title>n1&#45;&gt;n0</title>
<path fill="none" stroke="black" d="M144.29,-288.59C126.53,-279.1 103.97,-267.04 84.74,-256.77"/>
<polygon fill="black" stroke="black" points="86.36,-253.67 75.89,-252.04 83.06,-259.84 86.36,-253.67"/>
</g>
<!-- n12 -->
<g id="node13" class="node">
<title>n12</title>
<polygon fill="none" stroke="black" points="306,-252 105.75,-234 306,-216 506.25,-234 306,-252"/>
<text text-anchor="middle" x="306" y="-230.3" font-family="Times,serif" font-size="14.00">Barstools are deconstructed</text>
</g>
<!-- n1&#45;&gt;n12 -->
<g id="edge16" class="edge">
<title>n1&#45;&gt;n12</title>
<path fill="none" stroke="black" d="M205.71,-288.59C224.86,-278.36 249.6,-265.14 269.72,-254.39"/>
<polygon fill="black" stroke="black" points="271.43,-257.44 278.6,-249.64 268.13,-251.27 271.43,-257.44"/>
</g>
<!-- n2 -->
<g id="node3" class="node">
<title>n2</title>
<ellipse fill="none" stroke="black" cx="602" cy="-306" rx="97.48" ry="18"/>
<text text-anchor="middle" x="602" y="-302.3" font-family="Times,serif" font-size="14.00">Hardware removal</text>
</g>
<!-- n2&#45;&gt;n0 -->
<g id="edge2" class="edge">
<title>n2&#45;&gt;n0</title>
<path fill="none" stroke="black" d="M508.03,-300.92C408.23,-295.29 245.96,-282.38 98.22,-252"/>
<polygon fill="black" stroke="black" points="98.57,-248.5 88.06,-249.88 97.14,-255.35 98.57,-248.5"/>
</g>
<!-- n8 -->
<g id="node8" class="node">
<title>n8</title>
<ellipse fill="none" stroke="black" cx="602" cy="-234" rx="77.99" ry="18"/>
<text text-anchor="middle" x="602" y="-230.3" font-family="Times,serif" font-size="14.00">Sand Backrest</text>
</g>
<!-- n2&#45;&gt;n8 -->
<g id="edge12" class="edge">
<title>n2&#45;&gt;n8</title>
<path fill="none" stroke="black" d="M602,-287.7C602,-279.98 602,-270.71 602,-262.11"/>
<polygon fill="black" stroke="black" points="605.5,-262.1 602,-252.1 598.5,-262.1 605.5,-262.1"/>
</g>
<!-- n9 -->
<g id="node9" class="node">
<title>n9</title>
<ellipse fill="none" stroke="black" cx="901" cy="-234" rx="59.29" ry="18"/>
<text text-anchor="middle" x="901" y="-230.3" font-family="Times,serif" font-size="14.00">Sand Legs</text>
</g>
<!-- n2&#45;&gt;n9 -->
<g id="edge13" class="edge">
<title>n2&#45;&gt;n9</title>
<path fill="none" stroke="black" d="M661.42,-291.7C708.12,-281.17 774.78,-265.95 833,-252 837.64,-250.89 842.45,-249.72 847.27,-248.54"/>
<polygon fill="black" stroke="black" points="848.27,-251.89 857.14,-246.1 846.59,-245.1 848.27,-251.89"/>
</g>
<!-- n10 -->
<g id="node10" class="node">
<title>n10</title>
<ellipse fill="none" stroke="black" cx="761" cy="-234" rx="63.09" ry="18"/>
<text text-anchor="middle" x="761" y="-230.3" font-family="Times,serif" font-size="14.00">Sand Seats</text>
</g>
<!-- n2&#45;&gt;n10 -->
<g id="edge14" class="edge">
<title>n2&#45;&gt;n10</title>
<path fill="none" stroke="black" d="M638.08,-289.12C662.13,-278.53 693.82,-264.57 719.01,-253.49"/>
<polygon fill="black" stroke="black" points="720.57,-256.63 728.31,-249.39 717.75,-250.22 720.57,-256.63"/>
</g>
<!-- n2&#45;&gt;n12 -->
<g id="edge17" class="edge">
<title>n2&#45;&gt;n12</title>
<path fill="none" stroke="black" d="M544.58,-291.42C493.88,-279.43 420.14,-261.99 368.08,-249.68"/>
<polygon fill="black" stroke="black" points="368.84,-246.26 358.3,-247.37 367.23,-253.08 368.84,-246.26"/>
</g>
<!-- n3 -->
<g id="node4" class="node">
<title>n3</title>
<polygon fill="none" stroke="black" points="861,-108 787,-108 787,-72 861,-72 861,-108"/>
<text text-anchor="middle" x="824" y="-86.3" font-family="Times,serif" font-size="14.00">Lacquer</text>
</g>
<!-- n11 -->
<g id="node12" class="node">
<title>n11</title>
<polygon fill="none" stroke="black" points="824,-36 747.92,-18 824,0 900.08,-18 824,-36"/>
<text text-anchor="middle" x="824" y="-14.3" font-family="Times,serif" font-size="14.00">Finishing</text>
</g>
<!-- n3&#45;&gt;n11 -->
<g id="edge15" class="edge">
<title>n3&#45;&gt;n11</title>
<path fill="none" stroke="black" d="M824,-71.7C824,-63.98 824,-54.71 824,-46.11"/>
<polygon fill="black" stroke="black" points="827.5,-46.1 824,-36.1 820.5,-46.1 827.5,-46.1"/>
</g>
<!-- n4 -->
<g id="node5" class="node">
<title>n4</title>
<ellipse fill="none" stroke="black" cx="539" cy="-162" rx="96.68" ry="18"/>
<text text-anchor="middle" x="539" y="-158.3" font-family="Times,serif" font-size="14.00">Lacquer Backrests</text>
</g>
<!-- n4&#45;&gt;n3 -->
<g id="edge3" class="edge">
<title>n4&#45;&gt;n3</title>
<path fill="none" stroke="black" d="M600.81,-148.05C647.28,-137.99 712.42,-123.24 769,-108 771.62,-107.29 774.31,-106.54 777.02,-105.77"/>
<polygon fill="black" stroke="black" points="778.22,-109.07 786.83,-102.89 776.25,-102.35 778.22,-109.07"/>
</g>
<!-- n5 -->
<g id="node6" class="node">
<title>n5</title>
<ellipse fill="none" stroke="black" cx="993" cy="-162" rx="73.39" ry="18"/>
<text text-anchor="middle" x="993" y="-158.3" font-family="Times,serif" font-size="14.00">Lacquer Legs</text>
</g>
<!-- n5&#45;&gt;n3 -->
<g id="edge4" class="edge">
<title>n5&#45;&gt;n3</title>
<path fill="none" stroke="black" d="M957.16,-146.15C931.94,-135.71 897.94,-121.63 870.61,-110.31"/>
<polygon fill="black" stroke="black" points="871.83,-107.02 861.25,-106.43 869.15,-113.49 871.83,-107.02"/>
</g>
<!-- n6 -->
<g id="node7" class="node">
<title>n6</title>
<ellipse fill="none" stroke="black" cx="824" cy="-162" rx="77.19" ry="18"/>
<text text-anchor="middle" x="824" y="-158.3" font-family="Times,serif" font-size="14.00">Lacquer Seats</text>
</g>
<!-- n6&#45;&gt;n3 -->
<g id="edge5" class="edge">
<title>n6&#45;&gt;n3</title>
<path fill="none" stroke="black" d="M824,-143.7C824,-135.98 824,-126.71 824,-118.11"/>
<polygon fill="black" stroke="black" points="827.5,-118.1 824,-108.1 820.5,-118.1 827.5,-118.1"/>
</g>
<!-- n8&#45;&gt;n4 -->
<g id="edge6" class="edge">
<title>n8&#45;&gt;n4</title>
<path fill="none" stroke="black" d="M586.75,-216.05C579.01,-207.46 569.47,-196.86 560.96,-187.4"/>
<polygon fill="black" stroke="black" points="563.4,-184.88 554.11,-179.79 558.2,-189.56 563.4,-184.88"/>
</g>
<!-- n7 -->
<g id="node11" class="node">
<title>n7</title>
<polygon fill="none" stroke="black" points="728.5,-180 653.5,-180 653.5,-144 728.5,-144 728.5,-180"/>
<text text-anchor="middle" x="691" y="-158.3" font-family="Times,serif" font-size="14.00">Sanding</text>
</g>
<!-- n8&#45;&gt;n7 -->
<g id="edge9" class="edge">
<title>n8&#45;&gt;n7</title>
<path fill="none" stroke="black" d="M623.09,-216.41C634.48,-207.46 648.72,-196.25 661.22,-186.42"/>
<polygon fill="black" stroke="black" points="663.43,-189.13 669.13,-180.2 659.11,-183.63 663.43,-189.13"/>
</g>
<!-- n9&#45;&gt;n5 -->
<g id="edge7" class="edge">
<title>n9&#45;&gt;n5</title>
<path fill="none" stroke="black" d="M921.88,-217.12C934.17,-207.76 949.92,-195.78 963.47,-185.47"/>
<polygon fill="black" stroke="black" points="965.73,-188.15 971.57,-179.31 961.49,-182.58 965.73,-188.15"/>
</g>
<!-- n9&#45;&gt;n7 -->
<g id="edge10" class="edge">
<title>n9&#45;&gt;n7</title>
<path fill="none" stroke="black" d="M861.35,-220.51C830.34,-210.65 785.92,-196.33 738.25,-180.03"/>
<polygon fill="black" stroke="black" points="739.27,-176.68 728.67,-176.75 737,-183.3 739.27,-176.68"/>
</g>
<!-- n10&#45;&gt;n6 -->
<g id="edge8" class="edge">
<title>n10&#45;&gt;n6</title>
<path fill="none" stroke="black" d="M775.93,-216.41C783.66,-207.82 793.26,-197.16 801.84,-187.63"/>
<polygon fill="black" stroke="black" points="804.65,-189.73 808.74,-179.96 799.45,-185.05 804.65,-189.73"/>
</g>
<!-- n10&#45;&gt;n7 -->
<g id="edge11" class="edge">
<title>n10&#45;&gt;n7</title>
<path fill="none" stroke="black" d="M744.41,-216.41C735.86,-207.86 725.26,-197.26 715.77,-187.77"/>
<polygon fill="black" stroke="black" points="717.99,-185.04 708.45,-180.45 713.04,-189.99 717.99,-185.04"/>
</g>
<!-- n13 -->
<g id="node14" class="node">
<title>n13</title>
<polygon fill="none" stroke="black" points="691,-108 622.13,-90 691,-72 759.87,-90 691,-108"/>
<text text-anchor="middle" x="691" y="-86.3" font-family="Times,serif" font-size="14.00">Sanding</text>
</g>
<!-- n7&#45;&gt;n13 -->
<g id="edge18" class="edge">
<title>n7&#45;&gt;n13</title>
<path fill="none" stroke="black" d="M691,-143.7C691,-135.98 691,-126.71 691,-118.11"/>
<polygon fill="black" stroke="black" points="694.5,-118.1 691,-108.1 687.5,-118.1 694.5,-118.1"/>
</g>
</g>
</svg>
